<!-- Favicon: the thistle flower of logo.svg (one flower of the "flores de
     cardo" group in docs/images/banner.svg) on a rounded plate in the banner's
     darkest sky tone, behind it the banner's purple glow (#8a55b0, the one
     behind the thistles) as a radial gradient instead of its blur filter, so
     the icon reads on a light tab bar. -->
<svg xmlns="http://www.w3.org/2000/svg" viewBox="0 0 360 360" width="256" height="256" role="img" aria-label="Awesome Extremadura">
  <defs>
    <radialGradient id="aw-glow" cx="50%" cy="50%" r="50%"><stop offset="0%" stop-color="#8a55b0" stop-opacity="0.30"/><stop offset="100%" stop-color="#8a55b0" stop-opacity="0"/></radialGradient>
  </defs>
  <rect width="360" height="360" rx="72" fill="#0a0a0f"/>
  <circle cx="180" cy="180" r="170" fill="url(#aw-glow)"/>
  <g transform="translate(180 198.6) scale(5.3)">
    <path d="M-4.7 -5.0 L-12.0 -11.1 M-4.3 -5.5 L-13.3 -15.0 M-3.8 -5.9 L-9.8 -15.6 M-3.2 -6.3 L-9.8 -19.8 M-2.5 -6.6 L-6.4 -19.0 M-1.7 -6.8 L-5.2 -22.9 M-0.9 -7.0 L-2.2 -20.8 M0.0 -7.0 L0.0 -24.0 M0.9 -7.0 L2.2 -20.8 M1.7 -6.8 L5.2 -22.9 M2.5 -6.6 L6.4 -19.0 M3.2 -6.3 L9.8 -19.8 M3.8 -5.9 L9.8 -15.6 M4.3 -5.5 L13.3 -15.0 M4.7 -5.0 L12.0 -11.1" stroke="#9a5fc0" stroke-width="2.4" stroke-linecap="round"/>
    <path d="M-13 -6 C-8 -12 8 -12 13 -6 C8 -9 -8 -9 -13 -6 Z" fill="#7d4aa0"/>
    <g fill="#6f7d58" stroke="#3e4632" stroke-width="2">
      <path d="M-10.4 14 Q-7.2 4 -4.0 14 Z"/>
      <path d="M-6.8 14 Q-3.6 4 -0.4 14 Z"/>
      <path d="M-3.2 14 Q0.0 4 3.2 14 Z"/>
      <path d="M0.4 14 Q3.6 4 6.8 14 Z"/>
      <path d="M4.0 14 Q7.2 4 10.4 14 Z"/>
      <path d="M-12.0 8 Q-8.8 -2 -5.6 8 Z"/>
      <path d="M-7.6 8 Q-4.4 -2 -1.2 8 Z"/>
      <path d="M-3.2 8 Q0.0 -2 3.2 8 Z"/>
      <path d="M1.2 8 Q4.4 -2 7.6 8 Z"/>
      <path d="M5.6 8 Q8.8 -2 12.0 8 Z"/>
      <path d="M-13.2 2 Q-10.0 -8 -6.8 2 Z"/>
      <path d="M-9.2 2 Q-6.0 -8 -2.8 2 Z"/>
      <path d="M-5.2 2 Q-2.0 -8 1.2 2 Z"/>
      <path d="M-1.2 2 Q2.0 -8 5.2 2 Z"/>
      <path d="M2.8 2 Q6.0 -8 9.2 2 Z"/>
      <path d="M6.8 2 Q10.0 -8 13.2 2 Z"/>
    </g>
    <path d="M-11 12 C-6 18 6 18 11 12 L8 16 C3 19 -3 19 -8 16 Z" fill="#56613f"/>
  </g>
</svg>
